<svg viewBox="0 0 100 100" preserveAspectRatio="none" xmlns="http://www.w3.org/2000/svg">
  <!-- Accurate stylized shape of Bihar state for masking -->
  <path d="M 16.5,23.1 C 21.0,16.5 28.6,22.0 34.1,19.8 C 39.6,17.6 44.0,14.3 48.4,16.5 C 52.8,18.7 60.5,25.3 64.9,23.1 C 69.3,20.9 74.8,24.2 81.4,28.6 C 88.0,33.0 95.7,29.7 100.1,35.2 C 101.2,41.8 96.8,49.5 97.9,56.1 C 99.0,62.7 93.5,70.4 85.8,74.8 C 78.1,79.2 69.3,83.6 64.9,90.2 C 60.5,96.8 50.6,99.0 45.1,92.4 C 39.6,85.8 30.8,90.2 24.2,84.7 C 17.6,79.2 7.7,73.7 12.1,64.9 C 16.5,56.1 4.4,50.6 1.1,41.8 C -2.2,33.0 12.1,29.7 16.5,23.1 Z" fill="black" />
</svg>
